<svg viewBox="0 0 24 24" xmlns="http://www.w3.org/2000/svg"><defs><style>.cls-1{fill:#5014b8}</style></defs><path class="cls-1" d="M5.33 11.91S3 12.37 1.8 11.2s-.71-3.53-.71-3.53 2.36-.47 3.54.7.7 3.54.7 3.54Z"/><path class="cls-1" d="M5.33 11.67s-2.33-.47-3.53.7-.71 3.54-.71 3.54 2.36.46 3.54-.71.7-3.53.7-3.53Z"/><circle class="cls-1" cx="18" cy="12" r="1"/><path class="cls-1" d="M14 19a1 1 0 0 1-.67-.26A1 1 0 0 1 13 18V6a1 1 0 0 1 .33-.74 1 1 0 0 1 .76-.26 10.68 10.68 0 0 1 8.83 6.57 1 1 0 0 1 0 .78 11.11 11.11 0 0 1-2 3.14 1 1 0 0 1-1.48-1.35A8.94 8.94 0 0 0 20.9 12 8.67 8.67 0 0 0 15 7.21v9.58a8.62 8.62 0 0 0 1.56-.51 1 1 0 0 1 .82 1.82 10.46 10.46 0 0 1-3.29.86Zm-5-1a1 1 0 0 1-1-1V7a1 1 0 0 1 2 0v10a1 1 0 0 1-1 1Z"/><path class="cls-1" d="M14 13H5a1 1 0 0 1 0-2h9a1 1 0 0 1 0 2Z"/></svg>