<?xml version="1.0" standalone="no"?>
<!DOCTYPE svg PUBLIC "-//W3C//DTD SVG 20010904//EN"
 "http://www.w3.org/TR/2001/REC-SVG-20010904/DTD/svg10.dtd">
<svg version="1.0" xmlns="http://www.w3.org/2000/svg"
 width="700.000000pt" height="700.000000pt" viewBox="0 0 700.000000 700.000000"
 preserveAspectRatio="xMidYMid meet">
<metadata>
Created by potrace 1.14, written by Peter Selinger 2001-2017
</metadata>
<g transform="translate(0.000000,700.000000) scale(0.100000,-0.100000)"
fill="#000000" stroke="none">
<path d="M4041 5538 c-59 -10 -123 -42 -161 -81 -36 -37 -77 -111 -84 -153 -2
-16 -5 -363 -5 -771 l-1 -743 -435 0 c-337 0 -435 3 -436 13 0 6 -2 284 -3
617 -1 590 -2 606 -22 651 -30 63 -79 116 -138 147 -42 21 -65 26 -131 26 -68
1 -88 -3 -131 -26 -59 -31 -109 -84 -138 -147 -20 -45 -21 -60 -22 -661 l-1
-615 -375 -3 -374 -2 -2 97 c-1 54 -4 109 -7 123 -2 14 -7 48 -10 75 -14 123
-71 278 -136 375 -49 72 -73 97 -138 149 -98 76 -198 118 -376 157 -94 20
-384 26 -505 10 -36 -4 -71 -8 -78 -9 -23 -1 -32 -74 -37 -287 -5 -203 8 -312
55 -451 57 -170 145 -290 277 -375 46 -30 135 -75 173 -86 8 -3 -7 -13 -35
-23 -182 -70 -340 -233 -406 -418 -51 -146 -64 -236 -64 -447 0 -199 10 -301
31 -317 40 -30 483 -36 567 -8 6 2 28 6 47 9 53 8 179 50 235 78 81 42 171
113 220 175 84 108 155 286 172 433 3 25 6 54 8 65 2 11 4 37 4 57 l1 38 375
-1 c345 0 375 -1 376 -17 0 -9 1 -287 3 -617 1 -547 3 -604 19 -639 107 -242
431 -246 541 -7 20 45 21 62 22 651 1 333 3 611 3 618 1 9 95 12 436 12 l435
0 1 -742 c0 -409 3 -756 5 -773 15 -89 105 -190 196 -221 45 -15 62 -15 128
-5 41 6 95 14 120 16 255 28 761 180 868 262 215 163 112 501 -157 521 -60 4
-76 0 -181 -41 -132 -51 -296 -104 -355 -113 l-40 -6 0 1395 c0 1389 0 1394
20 1389 90 -20 318 -94 365 -119 14 -7 29 -13 33 -13 18 0 272 -132 350 -182
403 -257 725 -612 922 -1017 l32 -65 -50 -90 c-95 -173 -213 -342 -345 -495
-81 -93 -105 -145 -105 -230 -1 -87 30 -157 93 -214 66 -60 114 -76 208 -73
122 3 164 33 309 214 173 215 313 433 406 632 123 264 124 278 21 500 -188
405 -442 746 -774 1040 -140 124 -335 266 -475 345 -27 16 -68 39 -90 51 -236
135 -603 267 -900 324 -156 30 -306 46 -354 38z"/>
<path d="M5157 3776 c-63 -23 -116 -64 -148 -114 -39 -62 -52 -114 -46 -187 8
-101 65 -187 158 -237 63 -33 195 -33 257 0 99 52 153 136 160 247 3 59 0 79
-21 126 -49 110 -134 170 -252 176 -44 2 -84 -2 -108 -11z"/>
</g>
</svg>
